<?xml version="1.0" standalone="no"?>
<!DOCTYPE svg PUBLIC "-//W3C//DTD SVG 1.1//EN" "http://www.w3.org/Graphics/SVG/1.1/DTD/svg11.dtd">
<svg xmlns="http://www.w3.org/2000/svg" width="322" height="348" viewBox="0 0 322 348" fill="none">
<circle cx="284.631" cy="186.631" r="25.9018" transform="rotate(-45 284.631 186.631)" fill="white"/>
<ellipse cx="160.38" cy="311.38" rx="25.547" ry="25.9018" transform="rotate(-45 160.38 311.38)" fill="white"/>
<circle cx="36.1289" cy="186" r="25.547" transform="rotate(-45 36.1289 186)" fill="white"/>
<path fill-rule="evenodd" clip-rule="evenodd" d="M86.5117 112.749L23 176.497V186.497V196.496L86.5177 260.239L150.035 323.981H160.995H171.954L234.968 260.733L297.981 197.484V186.485V175.485L234.962 112.243L171.942 49.0001H160.983H150.023L86.5117 112.749ZM224.008 249.733L160.995 312.982L97.9752 249.739L34.9557 186.497L97.9692 123.248L160.983 59.9994L224.002 123.242L287.022 186.485L224.008 249.733Z" fill="white"/>
<path fill-rule="evenodd" clip-rule="evenodd" d="M86.5117 112.749L23 176.497V186.497V196.496L86.5177 260.239L150.035 323.981H160.995H171.954L234.968 260.733L297.981 197.484V186.485V175.485L234.962 112.243L171.942 49.0001H160.983H150.023L86.5117 112.749ZM224.008 249.733L160.995 312.982L97.9752 249.739L34.9557 186.497L97.9692 123.248L160.983 59.9994L224.002 123.242L287.022 186.485L224.008 249.733Z" fill="white"/>
<path fill-rule="evenodd" clip-rule="evenodd" d="M86.5117 112.749L23 176.497V186.497V196.496L86.5177 260.239L150.035 323.981H160.995H171.954L234.968 260.733L297.981 197.484V186.485V175.485L234.962 112.243L171.942 49.0001H160.983H150.023L86.5117 112.749ZM224.008 249.733L160.995 312.982L97.9752 249.739L34.9557 186.497L97.9692 123.248L160.983 59.9994L224.002 123.242L287.022 186.485L224.008 249.733Z" fill="white"/>
<path fill-rule="evenodd" clip-rule="evenodd" d="M86.5117 112.749L23 176.497V186.497V196.496L86.5177 260.239L150.035 323.981H160.995H171.954L234.968 260.733L297.981 197.484V186.485V175.485L234.962 112.243L171.942 49.0001H160.983H150.023L86.5117 112.749ZM224.008 249.733L160.995 312.982L97.9752 249.739L34.9557 186.497L97.9692 123.248L160.983 59.9994L224.002 123.242L287.022 186.485L224.008 249.733Z" fill="white"/>
<path fill-rule="evenodd" clip-rule="evenodd" d="M86.5117 112.749L23 176.497V186.497V196.496L86.5177 260.239L150.035 323.981H160.995H171.954L234.968 260.733L297.981 197.484V186.485V175.485L234.962 112.243L171.942 49.0001H160.983H150.023L86.5117 112.749ZM224.008 249.733L160.995 312.982L97.9752 249.739L34.9557 186.497L97.9692 123.248L160.983 59.9994L224.002 123.242L287.022 186.485L224.008 249.733Z" fill="white"/>
<circle cx="160.504" cy="65.5043" r="46.3185" transform="rotate(-45 160.504 65.5043)" fill="#FFBE46"/>
</svg>